<svg xmlns="http://www.w3.org/2000/svg" width="183.204" height="68.18" viewBox="0 0 183.204 68.18">
  <path id="Path_61" data-name="Path 61" d="M244.335,217.54l-4.359,2.18-3.874-2.18-11.38,8.717v-5.812l4.116-3.632,1.454-4.116-7.992,1.694v-6.537l-4.6-7.992-9.444,7.748L197.841,206.4l-8.959,1.695-5.327,3.392v-3.874l2.905-3.874,2.422-3.874h-9.2V189.45l-4.116-4.843-1.453-7.506-21.8,23-10.17,2.422-16.709,14.529,5.085,7.506-5.085,1.938-6.781,4.116,1.938-5.57-3.632-2.664v-3.149l-1.211-1.211v-3.874L89.6,242.481H270ZM154.5,216.088l-7.144-.849-3.39-7.386v-.607l4,.607,4.964,1.938,6.9,4.844Z" transform="translate(-88.199 -175.701)" fill="#46627b" stroke="#46627b" stroke-linecap="round" stroke-linejoin="round" stroke-width="2.8"/>
</svg>
